# xmcd CD database file generated by Grip 3.0.5
# 
# Track frame offsets:
#       150
#       16540
#       34482
#       45946
#       59978
#       75802
#       94964
#       109768
#       121451
#       139059
#       154479
#       165977
#       185827
#       200181
#       219598
# 
# Disc length: 3230 seconds
# 
# Revision: 2
# Processed by: cddbd v1.4PL0 Copyright (c) Steve Scherf et al.
# Submitted via: Grip 3.0.5
# 
DISCID=d30c9c0f
DTITLE=Various Artist - Edges From the Postcard 2 [CD1]
DYEAR=1998
DGENRE=Country
TTITLE0=Robbie Fulks - Stone River
TTITLE1=Belle Starr - Nobody You'd Know
TTITLE2=Walter Clevenger - Only You
TTITLE3=Fear and Whiskey - You Taught Me A Lesson
TTITLE4=Wooden Leg - Little Sadie
TTITLE5=One Fell Swoop - One To Grow On
TTITLE6=Honky Tonk Confidential - Honkytonk 101
TTITLE7=Chris Wall - The Poet Is Not In Today
TTITLE8=The Sovines - Jesus Dionysus
TTITLE9=Kevin Johnson and the Linemen - Miss Lonelyhearts Out on the Town
TTITLE10=Five Chinese Brothers - I'll Never Learn How to Stop Loving You
TTITLE11=The Barkers - Baytown
TTITLE12=Naked Omaha - Stronghold
TTITLE13=The Meat Purveyors - Morning After Song
TTITLE14=Buck Diaz - Sincerity
EXTD=
EXTT0=
EXTT1=
EXTT2=
EXTT3=
EXTT4=
EXTT5=
EXTT6=
EXTT7=
EXTT8=
EXTT9=
EXTT10=
EXTT11=
EXTT12=
EXTT13=
EXTT14=
PLAYORDER=
